<svg width="80" height="80" viewBox="0 0 80 80" fill="none" xmlns="http://www.w3.org/2000/svg">
<rect x="0.5" y="0.5" width="79" height="79" rx="23.5" fill="white"/>
<path d="M56 50.146C56 54.0855 54.4196 57.8637 51.6066 60.6494C48.7936 63.435 44.9782 65 41 65V29.854C41 25.9145 42.5804 22.1363 45.3934 19.3506C48.2064 16.565 52.0218 15 56 15V50.146Z" fill="#2D2F43"/>
<path d="M29.5 65C33.6421 65 37 61.6421 37 57.5C37 53.3579 33.6421 50 29.5 50C25.3579 50 22 53.3579 22 57.5C22 61.6421 25.3579 65 29.5 65Z" fill="#F64343"/>
<rect x="0.5" y="0.5" width="79" height="79" rx="23.5" stroke="#F2F3F7"/>
</svg>
