<svg xmlns="http://www.w3.org/2000/svg" viewBox="0 0 406 406"><path d="m136 19.6c-0.7 0.1-1.5 0.3-2.2 0.4-0.5 0.1-1.1 0.3-1.6 0.4-0.3 0.1-0.499 0.0996-0.799 0.0996h-0.102l0.0449 0.166-89.4 15.6 7.03 40c-1.58 0.0626-3.18 0.189-4.83 0.389-23.2 4.1-37.5 17.6-43 40.4v0.5c0 0.1-0.0996 0.3-0.0996 0.4-0.1 0.3-0.201 0.7-0.301 1-3.9e-7 0.2-0.0996 0.4-0.0996 0.6v1c-3.7e-7 0.3-0.0992 0.6-0.199 0.9-0.1 0.3-0.201 0.599-0.201 0.799s3.9e-4 0.601-0.0996 0.801v0.301c0 0.7-0.0996 1.4-0.0996 2.2-0.1 1.5-0.0996 3.1-0.0996 4.6 0 1.2 0.3 2.5 0.5 3.7h0.0996c4.3 27 19.6 44.3 46 52 0.3 0.7 0.7 1.3 1 2-1 2.2-2.4 6-2.4 10.8 0 2.5 0.4 4.7 0.9 6.4 1.1 2.7 3.3 4.5 5.9 4.8 2.1 0.2 3.7-0.702 4.3-1.1 1.3-0.8 4-2.6 5.9-6.1 1.5-2.7 1.8-5.2 1.8-6.7 1.7-3.2 3.5-6.2 5.5-9 0.6-3.5-0.4-6.3-3-8.5-9.5-3.6-18.8-7.6-28-12-16.8-11.4-23.9-27.2-21.5-47.5 6.4-17.4 17.3-26.4 32.6-26.8 5.1-0.1 10.6 0.7 16.7 2.4 10.9 5.4 18.9 13.6 24 24.5 1.9 6.5 2.9 13.2 3 20 0.8 5.8 1.3 11.8 1.5 18 0.9 2.8 2.1 5.5 3.5 8 3.6 3 7.6 3.7 12 2 2.6-1.5 3.9-3.9 4-7-2.6-8.8-3.6-17.8-3-27h2.6c0.4-0.4 1-0.7 1.7-0.9 10.7-2.7 21-5.8 31.9-7.7 4.5-0.8 11.6-1.3 15.2-4.3 3.1-2.5 0.301-7.1-1.7-10.6 0-0.1-0.2-0.3-0.5-0.4s-0.502 0-0.602 0c-2 0.6-3.8 1.2-5.5 1.7-1.4 0.4-2.8 0.799-4 1.2-0.1 0-0.199 0.0996-0.299 0.0996l0.0996 0.4c-0.1-0.1-0.0992-0.3-0.199-0.4-0.2 0.1-0.402 0.0996-0.602 0.0996-2.1 0.6-4 1.1-5.5 1.4-5 1.2-9.7 2.4-14.2 3.5-0.3 0.2-0.7 0.3-1.1 0.4-2.6 0.5-5.1 1.3-7.7 1.8h-0.5c-3.8 0.6-6.7 1.1-10.1-1-2.2-1.3-4.9-2.8-6.7-4.7v-0.0996c-0.1-0.2-0.201-0.3-0.201-0.5v-0.0996c0-0.1-0.0996-0.201-0.0996-0.201-5-8.1-12.4-14.6-19.1-21.3-7.4-7.3-16.7-11.7-27-12.8h-0.0996l-6.3-35.9 80.8-14.1 1.6 6.3 18 68.7c0.321-0.0916 0.618-0.184 0.916-0.275 0.144 0.0479 0.305 0.0762 0.484 0.0762 0.2 0 0.4 3.9e-4 0.5-0.0996 1.5-0.6 3-1 4.6-1.5l-2.34-8.9c2.83-0.831 5.79-1.3 8.94-1.3 5.1 0.1 10.5 1.3 16.2 3.8 16.4 11.6 20.4 26.4 12 44.5-0.3 1-1 1.6-2 2-2.5-2.4-5.2-4.5-8-6.5 6.6-13.5 2.9-22.8-11-28h-2.7c1.8 3.8 4.1 7.2 3.4 11.6 0 1.5-0.2 3-0.9 4.4 1.1 1.7 1.1 4.2 0.201 7.5-1.9-1.2-3.8-2.3-5.8-3.3-1.6 0.8-3.3 1.5-5.1 2-7.1 2.3-14.6 2.9-21.9 4.4-1 0.2-2 0.399-3 0.699 19.7 5.5 37.7 14.5 53.8 27.2 10.7 9.4 19.6 20.4 26.5 33 13.8 17 31.6 25.5 53.5 25.5 2.7 6.7 6.2 12.8 10.5 18.5 14.2 16.7 32.1 27.7 53.5 33 11.6 2.2 23.3 2.5 35 1 1.2-0.2 2.2 0.1 3 1-2.6 7.2-5.8 14.2-9.5 21-5.4 7.9-10.6 15.9-15.5 24-8.8 9.3-17.8 18.5-27 27.5-5.8 3.6-11.6 7.3-17.4 10.9-5.2 3.2-10.4 6.4-15.5 9.6-0.6 0.2-10.2 3.8-11.3 12-0.2 1.2-0.2 2.9 0.4 5l0.199 0.199c0 0.1 0.101 0.101 0.201 0.201 1.1 0.7 2.8 1.6 4.9 2 5.9 1.2 9.6-1.9 25.4-12.7 13.3-9.2 15.9-10 22.2-15.7 3.3-3 6.7-6 10-9 9.8-9.1 18.5-19.1 26-30 8.1-10.2 15.2-21.2 21-33 28.1-57.1 27.6-114-1.9-171-3.7-5.7-7.3-11.3-11-17-7.2-9.3-16.3-12.5-27.5-9.5-5.8 5.2-9.5 11.7-11 19.5-4.6 18.2-10.6 35.8-18 53-5.2 11.8-12.9 21.8-23 30-0.4-18.8-4.2-36.8-11.5-54-3-6-7.2-11.2-12.5-15.5-4.3-2.9-8.5-4.4-12.6-4.5-5.2-0.1-10.2 2.3-14.9 7-6.1 10.6-11.5 21.6-16 33-2.3 3-4.7 6-7 9-2-2.2-4.2-4.2-6.5-6-1.7-2.7-4.1-4.7-7-6-0.9-1.2-1.1-2.6-0.5-4 16.9-29.4 10.7-52.9-18.5-70.5-8.9-2.7-17-3.9-24.3-3.8-3.75 0.0707-7.29 0.61-10.6 1.47zm-12.4 17.7-59.1 10.3 0.0137 0.0781-5.01 0.822 4.2 25.1c2.1 0 4.1 0.3 6.2 0.4 0.026 0 0.0519 0.0049 0.0781 0.0078 0.0365 0.0052 0.0729 0.0104 0.109 0.0156 0.145 0.0295 0.304 0.0762 0.512 0.0762v-0.0059c6.96 1.1 13.3 4.14 18.4 9.21 2.36 2.36 4.87 4.71 7.23 7.16l-0.0293 0.0391c2.73 2.91 5.07 6.17 7.38 9.47 0.0827 0.111 0.165 0.221 0.221 0.332l0.0117-2e-3c2.77 3.97 5.51 7.96 8.79 11.4l28.5-5h0.0996c0.2-0.1 0.4-0.0992 0.6-0.199 0 0 3.8e-4 -0.0996-0.0996-0.0996l-3.22-12.3c0.0401-0.0135 0.0837-0.0194 0.123-0.0391 0 0 3.8e-4 -0.0996-0.0996-0.0996zm-70.4 36.7 0.412 2.34c-0.0013-4.2e-5 -0.0026 4.2e-5 -0.0039 0zm302 32.2c3.5 2.7 6.4 6.1 8.5 10 24.5 43.4 29.8 89.1 16 137-2.4 1.5-4.9 2.5-7.5 3-18.3 3-36 0.9-53-6.5-7.5-3.1-13.8-7.6-19-13.5-5.7-5.5-10-12-13-19.5 21.6-15.5 38-35.3 49-59.5 0.7 0 1-0.3 1-1 6.3-15.3 11.4-30.9 15.5-47 0.4-1.4 1.2-2.4 2.5-3zm-301 0.9c-7.6-0.1-15.1 3.9-22.3 12-5.1 15.4-1.2 28.2 11.5 38.5 12.8 7.1 26.5 11.6 41 13.5 2.7-4.2 3.7-8.9 3-14-1-9.9-2.8-19.5-5.5-29-2.1-3.8-4.4-7.5-7-11-7.1-6.6-14-9.9-20.7-10zm-4.8 15c9.7 0.1 16.2 4.8 19.5 14 1.2 5 1.9 10 2 15-10.2-1-18.5-5.3-25-13-4.3-6.7-3.1-12.1 3.5-16zm206 13.1h1.2c2.7 0.1 4.8 1.5 6.3 4 5.3 9.3 8.7 19.3 10 30 0.5 11.3 0.6 22.6 0.5 34-12.1 2-23.1-0.5-33-7.5-4.2-3.7-8.5-7.2-13-10.5 3.7-6.7 7.8-13 12.5-19 4.7-10.6 9.8-21 15.5-31zm-75 119c-14 4.6-19.8 14.3-17.5 29 4.4 12.8 13.2 17.6 26.5 14.5 12.3-5.1 17.5-14.2 15.5-27.5-4.3-10.8-12.1-16.1-23.4-16z" fill="#fff"/></svg>