<svg xmlns="http://www.w3.org/2000/svg" viewBox="0 0 938 938"><path d="m547-0.00228-109 7.4 7.2 106c-0.6 1.4-1.2 3.8-1.8 6.3-6.2-8.8-13.8-16.2-23-22.1-10.7-6.1-22.2-9.1-34.5-9h-2.5c-7.7 0.4-14.7 2.9-21 7.5-23.7 19.1-29.3 42.6-17 70.5 2.9 5.1 6.4 9.7 10.5 14 0.8 1.4 0.6 2.8-0.5 4-55.3 39.6-103 86.6-144 141-19.6 23.4-37.1 48.4-52.5 75-12.2 21.1-22.4 43.1-30.5 66l-3 6c-3.7 14.4-7.5 28.7-11.5 43-2.3 9.2-3.8 18.6-4.5 28-0.2 0.6-0.7 0.9-1.5 1-6.5-2-12.3-5.2-17.5-9.5-7.6-10.3-12.1-21.8-13.5-34.5 15.1-11.2 21.1-26.2 18-45-4.8-16.6-14.6-29.3-29.5-38-9-4.3-18.5-7.3-28.5-9-6.8-0.4-12 2.3-15.5 8-2.6 3.3-4.8 6.9-6.5 11-1.7 5.8-3.5 11.5-5.5 17v18c6.6 26.3 23.6 40.3 51 42 4.4 27.1 18.7 46.7 43 59 1.3 1 1.9 2.5 2 4.5-3.3 43.2 1.7 85.4 15 126 3.6 8.9 6.9 17.9 10 27 6.7 14.6 13.5 29.3 20.5 44 2.3 3.9 4.9 7.6 8 11 0.2 34.5 0.7 68.8 1.5 103-0.1 5 0.2 10 1 15-19.7 0.1-39.4-0.1-59-0.5-1.8 1.2-3.7 2.3-5.5 3.5-2.4 5.8-0.9 10.1 4.5 13h550c6.5-4 7.5-9 3-15-30.6-1.3-61.3-1.3-92 0v-3c1-4.5 1.3-9.1 1-14v-5c0.3-17.5 0-34.8-1-52v-15l10.5-21c8.9-21.9 12-44.5 9.5-68 0.7-1.2 1.1-2.5 1-4 22.3 9 45.3 11 69 6 6.9-3.7 13-8.3 18.5-14 12.6-19.2 16.6-40.2 12-63-3.3-15.2-7.1-30.2-11.5-45 11.5-6.9 23.5-13.1 36-18.5 7.5-6.8 11.3-15.3 11.5-25.5 6.8-4 13.6-7.8 20.5-11.5 1-0.7 2-0.7 3 0 8.4 8.9 17.7 16.4 28 22.5 11.2 5.1 22.9 8.7 35 11 8 0.8 16 1.1 24 1 15.2-1 29.5-5.1 43-12 3.2-2.1 6.2-4.4 9-7 5.9-3.7 11.4-8.1 16.5-13 5.7-6.5 10.7-13.5 15-21 8.7-15.2 14.2-31.5 16.5-49 0.4-9.6-0.3-18.9-2-28-4.5-28.4-18.2-51.1-41-68-15.3-12.7-33-20.5-53-23.5-18.3-2.3-36-0.2-53 6.5-5.8 1.9-10.9 4.9-15.5 9-0.1-8.7 0.4-17.4 1.5-26 10.9-11.5 19.6-24.5 26-39 13.8-32.4 18.3-66 13.5-101-0.9-15-5.6-28.7-14-41-7-6.9-14.8-7.9-23.5-3-6.2 7.8-10.9 16.4-14 26-11.1 23.7-26.4 44.4-46 62 1.4-17-0.6-33.6-6-50-2.7-5.2-6.4-9.7-11-13.5-3.3-1.7-6.7-2.5-10.3-2.6-1.2 0-2.4 2e-3 -3.7 0.102-4.4 1.4-8.4 3.5-12 6.5-5.7 6.3-11.3 12.7-17 19-1.5 0.8-3 1.7-4.5 2.5-4.4-4.5-8.6-9.1-12.5-14-1.5-1.7-2.8-3.5-4-5.5 3.2-4.6 6.5-9.1 10-13.5 10.6-16.1 14.3-33.8 11-53-2-6.3-4.8-12.3-8.5-18-8.8-10.5-20-14.7-33.5-12.5-11.2 2.8-19.5 6.5-27.8 13.1 0 0.1-1.2 1.4-1.2 1.5s-0.1 0.2 0 0.4v0.6c0 0.1-3.9e-4 0.199 0.0996 0.299 0.1 0.2 0.0996 0.402 0.0996 0.602s0.102 0.3 0.102 0.5 0.0996 0.4 0.0996 0.6 0.0996 0.3 0.0996 0.5c0 0.1 0.0996 0.0992 0.0996 0.199l0.201 0.201c0.5 0.4 0.9 0.8 1.5 1.1 1.4 0.9 2.9 1.6 4.4 2.4 0.6 0.3 1.1 0.499 1.7 0.799 0.2 0.1 0.4 0.0996 0.5 0.0996 0.2 0 0.4 0.102 0.6 0.102s0.4 0.0996 0.6 0.0996 0.4-3.9e-4 0.6 0.0996c0.1 0 0.3 0.0996 0.4 0.0996h1.7c0.1 0 0.298 3.9e-4 0.398-0.0996 0.2 0 0.401 3.9e-4 0.701-0.0996h0.799c0.1 0 0.101 3.9e-4 0.201-0.0996 0 0 0.0996-2e-3 0.0996-0.102 0.1 0 0.0992-0.0996 0.199-0.0996h0.102c4.2-2.7 8.7-5 13.9-6.3 2-0.7 4-1 6.1-1 1.3 0 2.6 0.2 3.9 0.5 2.5 0.4 4.5 1.6 6 3.5 6.8 6.8 10.2 15.1 10 25-0.2 10.1-2.9 19.4-8 28-3.5 3.6-6.8 7.5-10 11.5-0.7 0.7-1.3 0.7-2 0-3.1-2.6-6.2-5.1-9.5-7.5-0.6-5.4-0.4-10.7 0.5-16 0.7-3.6 1.6-7.2 2.5-11 3.6-6.8 7.8-13.1 12.5-19 0.2-3.4-0.3-6.8-1.5-10-1-0.8-2.2-1.2-3.5-1-11 4.6-18.3 12.6-22 24-0.8 3.6-1.5 7.3-2 11-0.9 3.2-1.6 6.5-2 10-6.4-2.4-12.8-5.1-19-8 0.4-3.4 1.4-6.5 2.7-9.4l12.9-0.9c1.2-1 3.5-3.4 4.3-7 0.2-1.1 1.1-5.1-1.4-9.3-2.1-3.6-5.3-5-6.3-5.4-4.9 1-9.3 1.8-13.2 2.5-0.5-2.5-1.7-7.2-4.4-15.8zm-161 104c3.7 0 7.7 0.601 12 1.8 22.2 7.8 36 22.5 41.5 44.1-0.1 0.1-0.0992 0.199-0.199 0.299v0.701h0.398c0.4 1.8 0.901 3.6 1.3 5.5 0.4 6.3 0.9 12.7 1.5 19 2.7 8.8 8.6 12.6 17.5 11.5 3.2-3.6 4.4-7.8 3.5-12.5-2.5-1.8-4.1-4.1-5-7-0.7-4.7-1.2-9.3-1.5-14 56.7-8.9 107 4.7 151 41 9.3 7.1 16.6 16 22 26.5-4.9 2.9-8.4 7.1-10.5 12.5-0.8 8.2 0.8 15.8 5 23 11.2 16 26.7 24.4 46.5 25-5.1 31.7 5.2 57.1 31 76 11.4 6.6 23.8 9.3 37 8 2.6-2.4 3.9-2.1 4 1-0.9 6.9-1.9 13.9-3 21-2.3 5.3-5.9 9.3-11 12-6.5 2.4-12.2 6.1-17 11-0.7 0.3-1.3 0.7-2 1-21.9 15.8-46.2 25.8-73 30-4.9-0.1-9.6 0.5-14 2h-6c-18.7 0.5-37.4-0.2-56-2-11.1-0.6-22.1-2.1-33-4.5-5.1-5.4-10.8-10-17-14-12-6.2-24.3-11.5-37-16-19.3-7.9-35.7-19.7-49-35.5-3.7-5.9-7.2-11.9-10.5-18-9.8-23.8-15.3-48.5-16.5-74-2.2-2.5-4.5-2.5-7 0-0.7 0-1 0.3-1 1-3 0.9-4.8 2.9-5.5 6-0.4 15.3 1.4 30.3 5.5 45 3.1 12.5 7.6 24.5 13.5 36 0.9 1.6 2.1 2.9 3.5 4 4.8 8.8 10.8 16.8 18 24 9.4 8.2 19.4 15.7 30 22.5 10 4.5 20.4 8.1 31 11 13.4 6.3 24.9 15.1 34.5 26.5 5.7 9.5 13.2 17.2 22.5 23 2 1.7 4 3.3 6 5 21.5 11.2 42.8 22.8 64 34.5 4.5 3.8 9 7.7 13.5 11.5 0.4 1.1-0.1 1.8-1.5 2-25 4.6-34.7 19.3-29 44 1.5 6 3.8 11.7 7 17 1.2 1.5 1.2 3 0 4.5-2.4 0.7-4.7 1.6-7 2.5-3.7-0.2-7.4 0.2-11 1-9.3 0-18.7-0.3-28-1-44.8-2.8-85.2-17.5-121-44-9.7-9.8-17.7-20.8-24-33-5.3-12.3-7.8-25.3-7.5-39l-1.5-1.5c-3.3-0.7-6.7-0.7-10 0-1.4 0.5-2.6 1.3-3.5 2.5 0.2 34.5 13.4 62.8 39.5 85 4.5 4.1 9.5 7.4 15 10 32.8 21.2 68.8 33.6 108 37 3.6 10.3 10.6 16.6 21 19 5.6 1.5 11.3 2.5 17 3-2.6 12.4-6.6 24.4-12 35.9-7.9 18.2-18.6 34.6-32 49-4.3 4.7-8.7 9.3-13 14-28.7 27.4-62.7 44.7-102 52-17 3.7-34.3 4.9-52 3.5-11.8-0.6-23.1-3-34-7 13.1-22.3 19.4-46.5 19-72.5-0.2-6.1-0.8-12.1-2-18-1.1-7-2.4-14-4-21-13.2-35.8-37.5-60.8-73-75-14.8-5.9-30.1-8.2-46-7-8.4 0.9-16.4 2.9-24 6-43.3 16.1-68.3 47.1-75 93-0.7 1.3-1.3 2.7-2 4-1.2-3.5-2.5-6.8-4-10-2.8-11.3-5.7-22.7-8.5-34-4.7-31.2-5.8-62.5-3.5-94 3-16 6.5-32 10.5-48 2.2-10 5-19.6 8.5-29v-2c5.9-17.5 13.1-34.5 21.5-51 16.4-29.2 34.6-57.2 54.5-84 43.5-56.7 93.8-107 151-150 5.2 2.6 10.5 5.3 16 8 8.8 2.9 17.8 4 27 3.5 6.2 0.5 12.2-0.1 18-2 2.4-2.7 3.4-5.8 3-9.5-1.2-8.3-2.2-16.5-3-24.5-0.4-10.7-2.6-21-6.5-31-0.4-1.4-1.2-2.4-2.5-3-5-11.8-13.6-19.6-26-23.5-7.4-2.6-14.4-1.9-21 2-4.7 5.8-3.4 9.7 4 11.5 10.9-0.2 19.9 3.8 27 12 6 10.5 9 21.8 9 34 0.9 3.5 1.6 7.2 2 11v5c-6.7-0.1-13.3-0.4-20-1-15.5-4.1-27.1-13.1-35-27-5-12.6-5.1-25.3-0.5-38 6.5-11.4 15.4-17.2 26.5-17.3zm173 2.6-0.299 0.0996 4.2 15.7c-2.5 0.4-5.1 0.8-6.9 1-7.5 1-14.6 2-21.3 2.9-0.5 0.2-1.1 0.298-1.7 0.398-4.7 0.5-9.6 1.4-14.4 1.7-28.5 3.5-50.3 4.7-71 0.0996-0.8-1.3-1.6-2.6-2.3-3.9l2.5-10.4 111-7.6zm-8.1 36.6c-0.2 0.4-0.4 0.7-0.6 1-0.8-0.3-1.7-0.499-2.5-0.799zm228 32.5c1.6 0 2.9 1.6 4 4.6 4.9 14.9 7.1 30.3 6.5 46 0.1 17.7-2.2 35-7 52-4 17.1-11 32.7-21 47-3.6 4.5-7.1 9.2-10.5 14-2.9 3.2-6 6-9.5 8.5-10.6 1.3-21 0.1-31-3.5l-2-2c-10-6.1-16.8-14.8-20.5-26-2.9-11.9-3.2-23.9-1-36 17.1-7.8 32.1-18.4 45-32l1.5-3c8.1-8.2 15.2-17.2 21.5-27 7.2-13.1 13.9-26.4 20-40 1.5-1.7 2.8-2.6 4-2.6zm-99 22.6c0.8 0 1.7 0.2 2.5 0.5 5 5.1 7.3 11.3 7 18.5 1.4 14.2 0.9 28.6-1.5 43-2.2 1.7-4.7 2.7-7.5 3-7.5 2.5-15.1 2.6-23 0.5-0.6-0.4-0.9-0.9-1-1.5-14.1-2.5-20.9-10.9-20.5-25 16-10.4 29.9-23.2 41.5-38.5 0.8-0.3 1.7-0.5 2.5-0.5zm-162 89.2c-1.8 0-3.7 0.101-5.7 0.301-11.5 2.3-19.5 8.8-24 19.5-6.9 22.6 1 37.9 23.5 46 10.4 2.3 19.6-0.1 27.5-7 4.3-4 7.7-8.7 10-14 1.5-3 2.2-6.4 2-10 0-2.5-0.3-4.9-1-7-3.9-18.5-14.7-27.8-32.3-27.8zm-58.5 40.6c-4.8 0.1-8.7 2.1-11.7 6.2-1.1 5.3 0.8 9.5 5.5 12.5 5.8 1.4 10.3-0.5 13.5-5.5 1.8-5.7 0.3-10-4.5-13-1-0.1-1.9-0.201-2.8-0.201zm-216 17.2c-7.1 0.1-10.4 3.8-10 11 3.3 5.3 7.6 6.3 13 3 3.7-5.4 3.2-10-1.5-14zm460 10.3c0.2 0.1 0.4 0.0996 0.6 0.0996-0.4-0.1-0.799-0.1-1.2 0 0.2 0 0.4-0.0996 0.6-0.0996zm117 15.9c25.9 0.4 49.3 11 70.1 31.8 9.9 11.8 16.5 25.1 20 40 5.2 30.7-1.1 58.7-19 84-5.6 6-11.3 12-17 18-6.3 3.5-12.6 7-19 10.5-11.2 4.5-22.9 7-35 7.5-38.8-0.9-67.2-18.2-85-52-10.5-23.9-12.9-48.5-7-74 10-27.6 28.3-47.6 55-60 12.8-4 25.1-6 36.9-5.8zm-168 2.29c-1.57 5e-3 -3.1 0.361-4.53 1.11-10.6 11.6-21.4 11.9-32.2 0.699-0.6 0.1-1.2 0.3-1.6 0.9-0.7-1.6-1.8-2.2-3.4-1.8-2.4 1.6-4.3 3.6-5.5 6 0.4 2.6 1.4 5.1 2.9 7.3 6.7 8.9 13.6 13.8 20.8 14.6 8.1 1 16.5-3.3 25.2-12.6 4.2-5.6 4.2-11-0.0996-16.1-0.525-0.075-1.05-0.113-1.57-0.111zm-431 2.41c-0.112-3e-3 -0.227-2e-3 -0.346 4e-3 -0.3 0-0.6 2e-3 -0.9 0.102-2.1-0.1-3.7 0.6-5 2-0.6 0.1-1.1 0.4-1.5 1-0.7 2.3-0.7 4.7 0 7 3.6 1.6 6.9 1.2 10-1 1.5-2.1 1.7-4.1 0.5-6-0.188-1.97-1.08-3.06-2.75-3.11zm594 7.4c-16.9 0.3-33.4 6.8-49.4 19.2-3.5 3.4-6.9 6.9-10 10.5-15.7 19-21.3 40.6-17 65 4 22.7 14.7 41.3 32 56 16.8 12.4 35.5 17.4 56 15 31.7-4.9 53.5-22.2 65.5-52 14.7-41.6 4.2-75.1-31.5-100-15.5-9.1-30.7-13.5-45.6-13.2zm1 14.2c10 0 20.6 2.3 31.6 7 15.1 8 25.1 20.2 30 36.5 8.7 19.9 7.4 39.3-4 58-10.3 19.7-26.7 30.7-49 33h-3c-8.1 0.3-16.1-0.4-24-2-6.7-2.9-13.4-6-20-9.5-17.6-16.3-26.1-36.2-25.3-59.7 0-0.6 0.102-1.2 0.102-1.8 0.1-1.3 0.199-2.7 0.199-4 1-9.4 4-18.1 9-26l3-6c15.1-17 32.3-25.4 51.4-25.5zm29.8 18.5c-8.6 0-11.8 4.3-9.7 13 0.5 1.4 1.3 2.6 2.5 3.5 4.3 2.4 8.8 3.2 13.5 2.5 5.2-8.3 3.4-14.6-5.5-19h-0.801zm-813 10c8.6 0.5 16.6 3 24 7.5 11 6.5 17.3 16 19 28.5 0.1 12.5-5.5 20.8-17 25-16.8 0.4-27.9-7.3-33.5-23-2.6-13.8-0.1-26.5 7.5-38zm682 1c-6.1 20.2-6.9 40.5-2.5 61 0.3 3.1 1.3 5.9 3 8.5-6.6 4.1-13.6 7.4-21 10l-3.5 3.5c-1-1.6-2.2-3.1-3.5-4.5-4.6-1.9-9.3-1.9-14 0-6.4 2.8-12.7 5.7-19 8.5-4.8 2.6-9.8 4.9-15 7-2.3-2-4.6-4-7-6-3.6-3.8-7.1-7.8-10.5-12-0.8-5.4-1.6-10.7-2.5-16-0.2-4.7-0.5-9.3-1-14-0.9-4.3-1.5-8.6-2-13 26.9-2.1 52.5-8.8 77-20 7.8-3.3 15-7.6 21.5-13zm-171 29c13.8 1.9 27.6 3.2 41.5 4h10c2.2-0.3 4.2 0 6 1 1.4 7.3 2.7 14.7 4 22v8c0.2 1.1-0.1 2.1-1 3-9.6-5.6-19.2-10.9-29-16-13.1-5.7-25.4-12.7-37-21 1.6-0.7 3.5-1 5.5-1zm318 2.2c-2.6 0-5.1 1.3-7.6 3.8-2.5 11.3 2 15.3 13.5 12 3.6-4 3.9-8.3 1-13-2.3-1.9-4.6-2.8-6.9-2.8zm-143 54.8c1.1 0 2.1 0.3 3.1 1 3 5.6 5.6 11.3 8 17-1.5-0.1-2.8 0.2-4 1-3.5 1-6.7 2.7-9.5 5l-7.5-15c-0.9-1.6-0.9-3.1 0-4.5 2.7-1.3 5.3-2.7 8-4 0.7-0.3 1.3-0.5 1.9-0.5zm-40.4 8c2.5 0.6 4.5 1.9 6 4 2.6 7.1 5.9 13.8 10 20 1.5 5.1 3.4 10.1 5.5 15-1.4 3.2-3.8 5.7-7 7.5-6.1 4-12.4 7.5-19 10.5-7.3 3.8-15 6.8-23 9-3 1.6-6.4 2.6-10 3-1.3 0-2-0.7-2-2 5.3-7.5 8.6-15.9 10-25 1-3.8 1.3-7.8 1-12-0.8-4.7-1.7-9.4-2.5-14 5.8-3.5 11.6-6.8 17.5-10 1.3-0.3 2.7-0.7 4-1 2.9-2 6-3.7 9.5-5zm17.5 4.2c0.3 0 0.6 0.101 1 0.301 0.8 1.1 1.5 2.3 2 3.5 1.5 4.4 3.1 8.7 5 13-0.1 0.6-0.5 0.9-1 1-2.8-5.4-5.5-10.9-8-16.5 0.2-0.8 0.6-1.2 1-1.3zm-70 18.8c1.3 0 2.7 0.2 4 0.5 1.7 1.8 2.4 4 2 6.5v11c-1.6 7.8-5.6 14.3-12 19.5-3 2.2-5.5 1.7-7.5-1.5-1.8-4.3-3.3-8.6-4.5-13-1.4-11.1 3.3-18.6 14-22.5 1.3-0.3 2.7-0.5 4-0.5zm27 62c2.1 5.8 4.4 11.5 7 17 3.5 10.4 5.5 21 6 32 0.3 4.8 0 9.5-1 14-12.8-4.6-24.8-3-36 5-6.6 4.8-10.9 11.1-13 19-0.7 4-1.3 8-2 12h-1c-4.8-0.8-9.5-2.1-14-4-2.1-1.6-4.5-2.9-7-4-1.6-0.5-3.3-0.9-5-1-0.4-3.5 0.6-6.5 3-9 6.2-13 11.7-26.3 16.5-40 0.5-2.6 0.7-5.3 0.5-8-0.3-1.6 0.1-2.9 1-4 6-4.4 12-8.7 18-13 3.7-1.8 7-4.2 10-7h1c5.3-3 10.6-6 16-9zm-401 1.9c1.9 0 3.9 2e-3 5.9 0.102 20 3.3 37.6 11.5 53 24.5 4.2 4.4 8.5 8.5 13 12.5 13.2 17.9 20.9 37.9 23 60 1.8 38.5-11.1 71.2-38.5 98-0.5 7.3-0.7 14.7-0.5 22v28c0.3 2.9 0 5.6-1 8-19.7-7-35.6-1.7-47.5 16-3.7 5.5-5.2 11.5-4.5 18-26.3-1-52.6-1.3-79-1v-7c0.2-37.3 0-74.7-0.5-112-7.4-10.8-13.7-22.1-19-34-2.1-7.2-3.3-14.5-3.5-22-1.8-29.5 6.4-55.9 24.5-79 20.6-21.3 45.5-32 74.6-32.1zm360 4.1c0.8 0.8 0.5 1.6-1 2.5-1.8 0.8-3.5 1.6-5 2.5-4.3 1.2-8.6 2.2-13 3-5.5 2.5-11.2 2.5-17 0-1-1.3-2-2.6-3-4 0.1-0.6 0.5-0.9 1-1 5.8 1 11.8 1.3 18 1 6.7-0.7 13.3-2 20-4zm41.6 68.2c12.3-0.4 12.2 6-0.6 19.3-1.9 1.4-3.9 2.6-6 3.5-1.4 1-3.1 1.7-5 2-3.4 0.2-6.8-0.1-10-1-0.3-4.5 0-8.9 1-13 1.5-5 4.8-8.2 10-9.5 4.2-0.8 7.7-1.3 10.6-1.3zm-91.6 48.8c0.8 0.9 1.3 1.9 1.5 3 1.6 14.4-0.1 28.4-5 42-4.3 10-8.7 20-13 30 0 9 0.2 18 0.5 27 0.2 9.3 0 18.7-0.5 28-17.4-5.2-31.8-0.5-43 14-3.3 4.9-5.1 10.2-5.5 16-0.8 1.9-1.2 3.9-1 6-20.7 0-41.3-0.3-62-1h-25v-85c2.1 0.2 4.1-0.2 6-1 8.5 0.1 16.8-0.9 25-3 40.2-9.1 74.9-28.1 104-57 6-6.3 12-12.6 18-19zm-249 41c-10 0.1-13.3 4.6-10 13.5 5.1 2.4 9.6 1.5 13.5-2.5 2.3-4.8 1.1-8.5-3.5-11zm18 30c19.9 5.9 40.2 8.9 61 9-0.3 24.8 0 49.5 1 74-0.1 4 0.2 8 1 12-23.3 0.3-46.7 0-70-1 0.9-3.9 1.3-7.9 1-12-1.1-25-1.2-50-0.5-75 1.7-2.8 3.9-5.1 6.5-7zm203 72.1c1.5 0 3.1 0.2 4.7 0.4 7.1 3.7 9.8 9.6 8 17.5 0.3 1.6-0.1 2.9-1 4h-33v-6c3.7-10.8 10.8-16.1 21.3-15.9zm-243 1.1c3-0.1 6.4 0.301 10 1.3 7.9 3.2 10.9 9 9 17.5-12.6 2-25.6 2.6-39 2v-5c4.2-10.2 10.9-15.5 20-15.8zm524 20.6c-4 0-7.6 1.4-10.6 4.2-2.3 5.4-1.2 9.9 3.5 13.5 10.2 2.8 15.4-1 15.5-11.5-1.4-2.6-3.2-4.6-5.5-6-1-0.1-1.9-0.201-2.9-0.201zm-45.3 0.0606c-0.466 3e-3 -0.933 0.0141-1.41 0.0391-5.5 0-11 0.602-16.4 1.6-5.3 6-4.7 11.3 2 16 7 0.7 14 0.7 21 0 6.9-6.4 6.5-12.2-1-17.5-1.42-0.075-2.79-0.15-4.19-0.141zm-706 0.0391c-2.1 0-4.3 0.502-6.7 1.6-4.8 1.9-6.8 5.4-6 10.5 0.9 0.8 1.6 1.8 2 3 4.9 2.9 10.2 3.7 16 2.5 5.4-3.3 6.9-7.8 4.5-13.5-3-2.8-6.3-4.1-9.8-4.1zm629 1c-3.6 0-7.2 2e-3 -10.8 0.102-6.3 4.7-6.6 9.8-1 15.5 14.3 1.4 28.6 1.9 43 1.5 6.1-5.2 6.5-10.7 1-16.5-10.7-0.4-21.5-0.602-32.2-0.602zm-666 0.102c-8 0-11.6 4-10.7 12 6.6 7.2 12.3 6.5 17-2 0-4.3-1.8-7.7-5.5-10h-0.801zm353 26c-2.8 0-5.7 0.2-8.5 0.5-4.6 1-6.9 3.9-7 8.5 1.3 2.4 3 4.5 5 6.5 7.4 0.8 14.7 0.7 22-0.5 2.4-2.5 3.4-5.5 3-9-1.3-2.5-3.3-4.4-6-5.5-2.8-0.3-5.7-0.5-8.5-0.5zm94.5 0c-1 1.5-2.1 2.8-3.5 4 0.1 11.1 5.6 14.9 16.5 11.5 5.9-6.2 5.2-11.3-2-15.5zm-44 1c-4.7 0-9.3 0.2-14 0.5-1.2 1-2.2 2.2-3 3.5-0.6 3.9 0.4 7.2 3 10 4.6 0.6 9.3 1 14 1 5.1 0.1 10.1-0.4 15-1.5 2-2.5 3-5.3 3-8.5-0.5-2.2-1.9-3.7-4-4.5-4.7-0.3-9.3-0.5-14-0.5zm-98.7 0.898c-0.8 0-1.5 2e-3 -2.3 0.102h-2c-4.7 7.3-2.7 11.9 6 14 7.8-2.4 9.5-6.9 5-13.5-2.2-0.4-4.5-0.602-6.7-0.602z" fill="#005bff"/></svg>