<svg xmlns="http://www.w3.org/2000/svg" viewBox="0 0 1417 1417"><defs><clipPath id="a"><path d="m1134 1417h-850c-157 0-284-127-284-283v-850c0-157 127-284 284-284h850c157 0 284 127 284 284v850c-0.1 156-127 283-284 283z"/></clipPath></defs><rect fill="#005BFF" width="1417" height="1417" clip-path="url(#a)"/><path fill="#F91155" d="m1852-311c-22.5 18.5-58.2 44-78.7 61.6-21.6 18.3-49.1 43.4-68.9 63.7-81.1 83.3-106 123-182 212-68.9 81-143 164-190 261-16.1 33.1-29.8 66.5-46 99.5-43.4 88.9-93.1 175-142 261-35.9 63.3-73.9 124-119 180-39.6 49.6-79.1 99.3-120 148-27.4 32.8-54.9 65.2-84.8 95.3-42.3 42.7-90.9 77-140 110-51.2 34.3-103 67.4-155 100-63.4 39.6-117 92.7-170 146-22.1 22.3-43.9 45.3-67.5 65.6-58.6 50.4-112 81.2-164 139-4.8 5.2-16.7 17.6-19.2 20.3l253-17c10.3-7 26.7-27.9 34.7-37.6 20.7-31.4 34.1-45.4 52.5-78.2 20.4-36.4 48-65.5 82.9-85.7 27.5-15.9 54-31.9 81.6-47.6 37.8-21.5 78-40.1 114-64.7 72.6-49.9 144-102 214-156 65.8-50.2 129-104 194-156 22.8-18.4 42.2-38.7 57.3-65 36.1-63 64.5-130 89.4-199 19.9-54.7 37.7-110 57-166 35.6-102 84.5-196 140-286 43.2-69.9 80.9-78.4 154-112l0.301 0.801c73.2-33.4 192-135 243-186l-20.6-307zm-222 32.7-332 24.1-0.9 0.199s-5.2 13.2-9.9 22.5c-49.9 112-94.3 215-158 319-54.8 89.1-111 176-177 257-22.8 28.4-45.9 57.5-75.2 78.8-45.9 33.4-91.7 65.6-138 98.3-65.6 46.3-132 92.2-192 146-23.9 21.1-46.7 43.5-65.6 70-14.5 20.3-28.9 41-45.8 59-68.7 73.6-145 138-222 202-79.2 65.7-159 131-239 195-49.7 40.3-100 79-155 112-10.9 6.5-23.1 11.4-34.8 16.1-1.8 0.7-114 45.5-123 53.8 0.7 9.4 10.4 146 10.7 147 1.6-0.9 33.7-26.7 40.1-31.4 46-34.8 70.1-60.6 121-86.2 57.7-29.1 116-56 172-87.2 130-71.9 258-149 383-229 57.9-37.2 115-74.5 172-114 67.5-47.6 126-105 184-166 70.1-73.6 139-149 207-224 46.6-51.6 92.1-105 138-158 30.4-35.4 60.8-70.5 89.9-107 48.7-61.5 89.8-128 132-194 26.2-40.9 53-81.9 82.5-120 75.3-97.6 143-192 236-284zm-364 26.3c-0.22 0.404-0.418 0.743-0.637 1.15l1.04-0.0469-0.4-1.1zm-0.637 1.15-243 11c-91.9 98-73 200-169 293-46.5 44.6-94.2 88-142 130-31.4 27.7-63.8 53.1-96.5 79-19.9 15.8-41.6 29.4-60.7 46.2-31 27.4-59.1 58.3-91.1 84.2-62 50.2-126 98.9-190 147-16.8 12.7-35.6 22.6-53.6 33.6-4.8 3-11 4.3-16.4 6.2l-1.4-2.6c1.6-4.1 2.4-8.8 4.6-12.4 4.6-7.5 10.5-14.1 15.7-21.1 54-73 110-143 169-210 38.1-42.5 75.9-85 118-123 27.8-25.1 57.2-47.2 90.7-63.8 16.1-8 32.3-18.6 46.1-30.6 41.9-35.9 70.3-83 93.9-134 11.8-25.7 20.4-54.1 33.6-78.9 20.8-38.7 44.3-75.8 66.7-114 2.1-3.5 7.7-13.2 13.2-19.6 0 0-186 8.4-186 8.4 0 0-107 108-157 156-39.7 37.5-79.2 74.9-113 118-67 86-131 175-193 265-39.7 56-79.9 112-129 160-52 50-106 97.9-167 136-34.5 21.6-69 41.8-101 67-73 57-146 119-207 197 0 0 13.1 287 13.2 290 48-94 78.1-148 134-206 23.2-24.1 47.2-47.7 78.1-60.5 44.7-18.3 89-37.7 134-53.5 101-35.3 201-67.7 301-102 30.1-10.3 60.9-21.5 86.6-41.9 43.5-34.8 87.3-67.8 129-104 141-122 281-246 422-369 30.2-26.4 58.4-54.3 81.9-87.8 154-172 206-248 285-393zm-721 1.75-210 9.5c-53 41.6-97.7 96.5-157 128-100 53-199 107-298 160-33.1 17.7-65.3 36.3-93.3 62.6-49.9 46-84 106-110 170-13.6 33.3-25.5 68.5-39 102-22.9 57-53.9 116-84.7 168 0.2 4 8.8 195 9 199 73-54 150-111 221-167 70-55 132-122 191-190 33.3-38.3 63.7-78.6 97.4-116 62-68 124-135 187-202l-0.4-0.0996c99-106 192-216 287-324zm1358 420c-23.5 17.8-82.7 51.4-103 73.4-31.6 34-70.4 64.1-129 154-105 161-90 231-147 283-28.8 26.5-59.4 50.8-88 77.6-39.4 37.5-72.2 80.5-105 124-52 68-103 139-154 207-15.9 21.2-33 41.1-49.4 61.8-25.1 31.7-58.8 52-91.8 72.2-95 58-189 117-285 173-108 63-190 109-291 185-9.3 6.9-34.9 25.3-57.5 40 3 0 197 2.2 210 2.3 3.9-4.1 9.6-9.6 11.7-12.1 17.5-20.4 33-36.2 49.3-57.7 25.6-33.6 56-62.7 90.6-85.7 18.9-12.7 37.8-27.3 56.8-40 56-37.5 112-74.7 168-111 9.8-6.3 22-9.4 33.4-11.8 4.7-1.1 12.2 2.9 15.3 6.9 2.4 3.1 0.702 10.4-1.4 14.9-3.2 7.1-7.4 13.5-13 18.8-15.9 14.4-32.4 28.4-49.2 41.5-78 61-158 119-228 191-15 15.3-30.3 29.7-46.6 45.6l-0.5 0.6 186 2.2c4.8-4.8 11.2-12.7 13-14.8 37.1-42.7 63.8-73.2 98.7-118 29.3-37.2 55.6-78 82-118 35.8-54 71.2-109 106-163 10.6-16.7 18.4-35.4 30-51.2 28.8-39 63.7-71.6 99.8-103 55.3-48 107-98.6 152-157 96-125 285-250 314-458 8-58 78.5-162 122-199 0.1-10.2 0.601-60 0.801-74.5zm-848 466c-1.62-0.0562-3.49 0.269-5.51 0.994-7.8 2.7-15.9 5.3-22.9 9.9-31.9 21.9-59.9 49.4-85.6 78.9-49.6 57-97.8 115-148 171-51 57-104 114-156 170-24.8 26.6-49.3 54.1-76.7 77.4-83 70-172 128-270 172-61 26.7-119 58.9-178 90.1-53 28.4-106 57.3-158 88.4-113 67-236 131-343 207l0.4 1 300-5.6c110-100 194-171 303-239 104-65 209-130 310-201 47.8-33.7 96-65.2 138-106 26.9-25.8 55.8-50.5 85.8-72.1 43.6-32.3 82.4-69.1 118-111 39.1-47 75-97.5 107-150 25.7-42.6 49.7-84.6 73.2-128 6.9-13 11.3-29 14.5-43.7 1.42-6.52-1.31-10.1-6.19-10.3zm557 289c-63 53-120 116-180 174-25.2 24.5-51.4 48.1-71.4 77.8-16.6 24.5-31.4 49.5-47.7 74.2-22.7 34.3-48.7 64.6-82 88.6-14.3 10.4-26.1 26.1-37.8 40-10.7 12.7-19.6 26-21.5 43.6-1.2 11.4 2.9 21.1 13.6 23.7 8.2 2 17.3 3.1 25.6 2.1 47.1-5.4 90.4-21.7 132-44.9 55.3-30.8 101-79.6 151-119 13.5-10.7 29.1-19.7 41.8-31.2 15.7-14.2 23.2-26.1 38-41.3l-0.9 0.4c1.4-10 39.2-286 39.3-288z" clip-path="url(#a)"/><path fill="#FFF" d="m1354 361c-5.81 0.075-11.8 1.47-17.5 4.39v-0.0996c-16.4 8.4-24 28-19.2 46l33.9 126-247-108c-8.6-3.8-17.7 4.1-15.2 13.3l69.9 261c4.8 18 21.2 31.2 39.6 30.2 25.7-1.4 42.2-25.7 35.8-49.3l-34.1-127 247 108c8.6 3.8 17.7-4.1 15.2-13.3l-70.1-262c-4.8-17.8-20.9-29.4-38.3-29.2zm-469 129c-25.8 0.0246-52.7 3.46-79.8 10.7-124 33.1-204 133-180 223s144 136 268 103c124-33 204-133 180-223-18.8-70.3-96.1-114-188-114zm2.12 78.8c58.1 0.366 103 24.3 111 55.1 11 41.1-40.5 104-126 127-85.5 23-162-5.9-173-47-11.1-41.2 40.5-104 126-127 21.4-5.72 42.2-8.22 61.6-8.1zm-331 7.51c-1.06-0.0332-2.15 0.0887-3.27 0.389l-234 62.8 0.199 0.199c-23.2 6.2-35.7 32.5-24.3 55.6 8.3 16.9 28.1 24.7 46.1 19.9l104-27.9-104 261c-3.4 8.6 4.3 17.5 13.2 15.1l254-68.2c18-4.8 31.2-21.5 29.9-40.3-1.7-25.7-25.7-42.2-48.8-36l-127 34 104-261c2.98-7.52-2.62-15.4-10-15.6zm-445 121c-7.17 0.136-14.4 0.756-21.6 1.88-103 16.7-164 125-126 226 27.8 74.4 104 120 181 108 103-16.6 164-125 126-226-25.2-67.4-90.1-111-159-110zm6.99 78.5c41.7 1.19 79.5 32.9 85.7 78.8 5.5 40-16.5 79.5-52.8 94.5-53.3 22-113-13.5-121-72.3-5.6-40 16.4-79.5 52.8-94.5 11.7-4.81 23.6-6.87 35.3-6.54z" clip-path="url(#a)"/></svg>